<mxfile host="app.diagrams.net" agent="Mozilla/5.0 (X11; Ubuntu; Linux x86_64; rv:142.0) Gecko/20100101 Firefox/142.0" version="28.1.2">
  <diagram name="Page-1" id="CnX-o000vF3b8Ial-e8h">
    <mxGraphModel dx="2032" dy="1219" grid="1" gridSize="10" guides="1" tooltips="1" connect="1" arrows="1" fold="1" page="0" pageScale="1" pageWidth="850" pageHeight="1100" math="0" shadow="0">
      <root>
        <mxCell id="0" />
        <mxCell id="1" parent="0" />
        <mxCell id="3WcrFg-mwN81ejGvuBXr-109" value="" style="endArrow=classic;html=1;rounded=0;" parent="1" edge="1">
          <mxGeometry width="50" height="50" relative="1" as="geometry">
            <mxPoint x="1000" y="210" as="sourcePoint" />
            <mxPoint x="1320" y="240" as="targetPoint" />
            <Array as="points">
              <mxPoint x="1320" y="210" />
            </Array>
          </mxGeometry>
        </mxCell>
        <mxCell id="3WcrFg-mwN81ejGvuBXr-110" value="alu_op_D" style="edgeLabel;html=1;align=center;verticalAlign=middle;resizable=0;points=[];" parent="3WcrFg-mwN81ejGvuBXr-109" vertex="1" connectable="0">
          <mxGeometry x="-0.2747" relative="1" as="geometry">
            <mxPoint x="138" as="offset" />
          </mxGeometry>
        </mxCell>
        <mxCell id="3WcrFg-mwN81ejGvuBXr-74" value="" style="endArrow=classic;html=1;rounded=0;exitX=1;exitY=0.667;exitDx=0;exitDy=0;exitPerimeter=0;jumpStyle=arc;" parent="1" source="3WcrFg-mwN81ejGvuBXr-9" edge="1">
          <mxGeometry width="50" height="50" relative="1" as="geometry">
            <mxPoint x="570" y="400" as="sourcePoint" />
            <mxPoint x="960" y="460" as="targetPoint" />
            <Array as="points">
              <mxPoint x="570" y="460" />
            </Array>
          </mxGeometry>
        </mxCell>
        <mxCell id="3WcrFg-mwN81ejGvuBXr-75" value="rd_D" style="edgeLabel;html=1;align=center;verticalAlign=middle;resizable=0;points=[];" parent="3WcrFg-mwN81ejGvuBXr-74" vertex="1" connectable="0">
          <mxGeometry x="0.8968" y="-1" relative="1" as="geometry">
            <mxPoint x="-7" as="offset" />
          </mxGeometry>
        </mxCell>
        <mxCell id="3WcrFg-mwN81ejGvuBXr-76" value="instr_D[11:7]" style="edgeLabel;html=1;align=center;verticalAlign=middle;resizable=0;points=[];" parent="3WcrFg-mwN81ejGvuBXr-74" vertex="1" connectable="0">
          <mxGeometry x="-0.8226" relative="1" as="geometry">
            <mxPoint x="-3" as="offset" />
          </mxGeometry>
        </mxCell>
        <mxCell id="3WcrFg-mwN81ejGvuBXr-6" style="edgeStyle=orthogonalEdgeStyle;rounded=0;orthogonalLoop=1;jettySize=auto;html=1;exitX=0.5;exitY=1;exitDx=0;exitDy=0;entryX=0.5;entryY=0;entryDx=0;entryDy=0;" parent="1" source="3WcrFg-mwN81ejGvuBXr-1" target="3WcrFg-mwN81ejGvuBXr-5" edge="1">
          <mxGeometry relative="1" as="geometry" />
        </mxCell>
        <mxCell id="3WcrFg-mwN81ejGvuBXr-1" value="PC" style="whiteSpace=wrap;html=1;aspect=fixed;" parent="1" vertex="1">
          <mxGeometry x="240" y="160" width="40" height="40" as="geometry" />
        </mxCell>
        <mxCell id="3WcrFg-mwN81ejGvuBXr-3" style="edgeStyle=orthogonalEdgeStyle;rounded=0;orthogonalLoop=1;jettySize=auto;html=1;exitX=0.5;exitY=1;exitDx=0;exitDy=0;entryX=0.5;entryY=0;entryDx=0;entryDy=0;" parent="1" source="3WcrFg-mwN81ejGvuBXr-2" target="3WcrFg-mwN81ejGvuBXr-1" edge="1">
          <mxGeometry relative="1" as="geometry" />
        </mxCell>
        <mxCell id="3WcrFg-mwN81ejGvuBXr-4" value="pc_start" style="edgeLabel;html=1;align=center;verticalAlign=middle;resizable=0;points=[];" parent="3WcrFg-mwN81ejGvuBXr-3" vertex="1" connectable="0">
          <mxGeometry x="-0.2597" relative="1" as="geometry">
            <mxPoint as="offset" />
          </mxGeometry>
        </mxCell>
        <mxCell id="3WcrFg-mwN81ejGvuBXr-2" value="i/o" style="ellipse;whiteSpace=wrap;html=1;aspect=fixed;" parent="1" vertex="1">
          <mxGeometry x="240" y="40" width="40" height="40" as="geometry" />
        </mxCell>
        <mxCell id="3WcrFg-mwN81ejGvuBXr-7" style="edgeStyle=orthogonalEdgeStyle;rounded=0;orthogonalLoop=1;jettySize=auto;html=1;exitX=0;exitY=0.5;exitDx=0;exitDy=0;entryX=0;entryY=0.5;entryDx=0;entryDy=0;" parent="1" source="3WcrFg-mwN81ejGvuBXr-5" target="3WcrFg-mwN81ejGvuBXr-1" edge="1">
          <mxGeometry relative="1" as="geometry">
            <Array as="points">
              <mxPoint x="200" y="260" />
              <mxPoint x="200" y="180" />
            </Array>
          </mxGeometry>
        </mxCell>
        <mxCell id="3WcrFg-mwN81ejGvuBXr-8" value="pcplus4_F" style="edgeLabel;html=1;align=center;verticalAlign=middle;resizable=0;points=[];" parent="3WcrFg-mwN81ejGvuBXr-7" vertex="1" connectable="0">
          <mxGeometry x="0.1086" y="-1" relative="1" as="geometry">
            <mxPoint y="6" as="offset" />
          </mxGeometry>
        </mxCell>
        <mxCell id="3WcrFg-mwN81ejGvuBXr-5" value="+4" style="whiteSpace=wrap;html=1;aspect=fixed;" parent="1" vertex="1">
          <mxGeometry x="240" y="240" width="40" height="40" as="geometry" />
        </mxCell>
        <mxCell id="3WcrFg-mwN81ejGvuBXr-9" value="F/D" style="rounded=0;whiteSpace=wrap;html=1;" parent="1" vertex="1">
          <mxGeometry x="440" y="40" width="40" height="630" as="geometry" />
        </mxCell>
        <mxCell id="3WcrFg-mwN81ejGvuBXr-10" style="edgeStyle=orthogonalEdgeStyle;rounded=0;orthogonalLoop=1;jettySize=auto;html=1;exitX=1;exitY=0.5;exitDx=0;exitDy=0;" parent="1" source="3WcrFg-mwN81ejGvuBXr-5" edge="1">
          <mxGeometry relative="1" as="geometry">
            <mxPoint x="440" y="260" as="targetPoint" />
            <Array as="points">
              <mxPoint x="440" y="260" />
            </Array>
          </mxGeometry>
        </mxCell>
        <mxCell id="3WcrFg-mwN81ejGvuBXr-13" value="pcplus4_F" style="edgeLabel;html=1;align=center;verticalAlign=middle;resizable=0;points=[];" parent="3WcrFg-mwN81ejGvuBXr-10" vertex="1" connectable="0">
          <mxGeometry x="-0.1583" y="-2" relative="1" as="geometry">
            <mxPoint x="53" y="-2" as="offset" />
          </mxGeometry>
        </mxCell>
        <mxCell id="3WcrFg-mwN81ejGvuBXr-11" style="edgeStyle=orthogonalEdgeStyle;rounded=0;orthogonalLoop=1;jettySize=auto;html=1;exitX=1;exitY=0.5;exitDx=0;exitDy=0;" parent="1" source="3WcrFg-mwN81ejGvuBXr-1" edge="1">
          <mxGeometry relative="1" as="geometry">
            <mxPoint x="440" y="180" as="targetPoint" />
            <Array as="points">
              <mxPoint x="440" y="180" />
            </Array>
          </mxGeometry>
        </mxCell>
        <mxCell id="3WcrFg-mwN81ejGvuBXr-12" value="pc_F" style="edgeLabel;html=1;align=center;verticalAlign=middle;resizable=0;points=[];" parent="3WcrFg-mwN81ejGvuBXr-11" vertex="1" connectable="0">
          <mxGeometry x="-0.0605" y="1" relative="1" as="geometry">
            <mxPoint x="55" y="1" as="offset" />
          </mxGeometry>
        </mxCell>
        <mxCell id="3WcrFg-mwN81ejGvuBXr-15" style="edgeStyle=orthogonalEdgeStyle;rounded=0;orthogonalLoop=1;jettySize=auto;html=1;strokeColor=default;jumpStyle=arc;entryX=0.5;entryY=0;entryDx=0;entryDy=0;" parent="1" edge="1">
          <mxGeometry relative="1" as="geometry">
            <mxPoint x="320" y="359.9999999999999" as="targetPoint" />
            <mxPoint x="320" y="180" as="sourcePoint" />
          </mxGeometry>
        </mxCell>
        <mxCell id="3WcrFg-mwN81ejGvuBXr-16" value="iaddr" style="edgeLabel;html=1;align=center;verticalAlign=middle;resizable=0;points=[];" parent="3WcrFg-mwN81ejGvuBXr-15" vertex="1" connectable="0">
          <mxGeometry x="0.7563" y="1" relative="1" as="geometry">
            <mxPoint x="-1" as="offset" />
          </mxGeometry>
        </mxCell>
        <mxCell id="3WcrFg-mwN81ejGvuBXr-28" value="imem" style="swimlane;fontStyle=0;childLayout=stackLayout;horizontal=1;startSize=30;horizontalStack=0;resizeParent=1;resizeParentMax=0;resizeLast=0;collapsible=1;marginBottom=0;whiteSpace=wrap;html=1;" parent="1" vertex="1">
          <mxGeometry x="280" y="360" width="80" height="240" as="geometry">
            <mxRectangle x="280" y="360" width="70" height="30" as="alternateBounds" />
          </mxGeometry>
        </mxCell>
        <mxCell id="3WcrFg-mwN81ejGvuBXr-29" value="0x0" style="text;strokeColor=none;fillColor=none;align=left;verticalAlign=middle;spacingLeft=4;spacingRight=4;overflow=hidden;points=[[0,0.5],[1,0.5]];portConstraint=eastwest;rotatable=0;whiteSpace=wrap;html=1;" parent="3WcrFg-mwN81ejGvuBXr-28" vertex="1">
          <mxGeometry y="30" width="80" height="30" as="geometry" />
        </mxCell>
        <mxCell id="3WcrFg-mwN81ejGvuBXr-32" value="0x4" style="text;strokeColor=none;fillColor=none;align=left;verticalAlign=middle;spacingLeft=4;spacingRight=4;overflow=hidden;points=[[0,0.5],[1,0.5]];portConstraint=eastwest;rotatable=0;whiteSpace=wrap;html=1;" parent="3WcrFg-mwN81ejGvuBXr-28" vertex="1">
          <mxGeometry y="60" width="80" height="30" as="geometry" />
        </mxCell>
        <mxCell id="3WcrFg-mwN81ejGvuBXr-34" value="0x8" style="text;strokeColor=none;fillColor=none;align=left;verticalAlign=middle;spacingLeft=4;spacingRight=4;overflow=hidden;points=[[0,0.5],[1,0.5]];portConstraint=eastwest;rotatable=0;whiteSpace=wrap;html=1;" parent="3WcrFg-mwN81ejGvuBXr-28" vertex="1">
          <mxGeometry y="90" width="80" height="30" as="geometry" />
        </mxCell>
        <mxCell id="3WcrFg-mwN81ejGvuBXr-35" value="0xC" style="text;strokeColor=none;fillColor=none;align=left;verticalAlign=middle;spacingLeft=4;spacingRight=4;overflow=hidden;points=[[0,0.5],[1,0.5]];portConstraint=eastwest;rotatable=0;whiteSpace=wrap;html=1;" parent="3WcrFg-mwN81ejGvuBXr-28" vertex="1">
          <mxGeometry y="120" width="80" height="30" as="geometry" />
        </mxCell>
        <mxCell id="3WcrFg-mwN81ejGvuBXr-33" value="0x10" style="text;strokeColor=none;fillColor=none;align=left;verticalAlign=middle;spacingLeft=4;spacingRight=4;overflow=hidden;points=[[0,0.5],[1,0.5]];portConstraint=eastwest;rotatable=0;whiteSpace=wrap;html=1;" parent="3WcrFg-mwN81ejGvuBXr-28" vertex="1">
          <mxGeometry y="150" width="80" height="30" as="geometry" />
        </mxCell>
        <mxCell id="3WcrFg-mwN81ejGvuBXr-30" value="0x14" style="text;strokeColor=none;fillColor=none;align=left;verticalAlign=middle;spacingLeft=4;spacingRight=4;overflow=hidden;points=[[0,0.5],[1,0.5]];portConstraint=eastwest;rotatable=0;whiteSpace=wrap;html=1;" parent="3WcrFg-mwN81ejGvuBXr-28" vertex="1">
          <mxGeometry y="180" width="80" height="30" as="geometry" />
        </mxCell>
        <mxCell id="3WcrFg-mwN81ejGvuBXr-31" value="0x18" style="text;strokeColor=none;fillColor=none;align=left;verticalAlign=middle;spacingLeft=4;spacingRight=4;overflow=hidden;points=[[0,0.5],[1,0.5]];portConstraint=eastwest;rotatable=0;whiteSpace=wrap;html=1;" parent="3WcrFg-mwN81ejGvuBXr-28" vertex="1">
          <mxGeometry y="210" width="80" height="30" as="geometry" />
        </mxCell>
        <mxCell id="3WcrFg-mwN81ejGvuBXr-37" value="" style="endArrow=classic;html=1;rounded=0;entryX=0;entryY=0.542;entryDx=0;entryDy=0;entryPerimeter=0;" parent="1" target="3WcrFg-mwN81ejGvuBXr-9" edge="1">
          <mxGeometry width="50" height="50" relative="1" as="geometry">
            <mxPoint x="360" y="380" as="sourcePoint" />
            <mxPoint x="420" y="380" as="targetPoint" />
          </mxGeometry>
        </mxCell>
        <mxCell id="3WcrFg-mwN81ejGvuBXr-38" value="instr_F" style="edgeLabel;html=1;align=center;verticalAlign=middle;resizable=0;points=[];" parent="3WcrFg-mwN81ejGvuBXr-37" vertex="1" connectable="0">
          <mxGeometry x="-0.0943" y="-1" relative="1" as="geometry">
            <mxPoint as="offset" />
          </mxGeometry>
        </mxCell>
        <mxCell id="3WcrFg-mwN81ejGvuBXr-39" value="&lt;div&gt;control&lt;/div&gt;&lt;div&gt;unit&lt;/div&gt;" style="rounded=0;whiteSpace=wrap;html=1;" parent="1" vertex="1">
          <mxGeometry x="600" y="40" width="80" height="200" as="geometry" />
        </mxCell>
        <mxCell id="3WcrFg-mwN81ejGvuBXr-40" value="" style="endArrow=classic;html=1;rounded=0;exitX=0.992;exitY=0.333;exitDx=0;exitDy=0;exitPerimeter=0;" parent="1" edge="1">
          <mxGeometry width="50" height="50" relative="1" as="geometry">
            <mxPoint x="479.68000000000006" y="199.99999999999991" as="sourcePoint" />
            <mxPoint x="600" y="200.16" as="targetPoint" />
          </mxGeometry>
        </mxCell>
        <mxCell id="3WcrFg-mwN81ejGvuBXr-42" value="instr_D[6:0]" style="edgeLabel;html=1;align=center;verticalAlign=middle;resizable=0;points=[];" parent="3WcrFg-mwN81ejGvuBXr-40" vertex="1" connectable="0">
          <mxGeometry x="-0.0476" y="-2" relative="1" as="geometry">
            <mxPoint x="-17" y="-2" as="offset" />
          </mxGeometry>
        </mxCell>
        <mxCell id="3WcrFg-mwN81ejGvuBXr-41" value="" style="endArrow=classic;html=1;rounded=0;" parent="1" edge="1">
          <mxGeometry width="50" height="50" relative="1" as="geometry">
            <mxPoint x="480" y="310" as="sourcePoint" />
            <mxPoint x="600" y="310" as="targetPoint" />
          </mxGeometry>
        </mxCell>
        <mxCell id="3WcrFg-mwN81ejGvuBXr-47" value="instr_D[24:20]" style="edgeLabel;html=1;align=center;verticalAlign=middle;resizable=0;points=[];" parent="3WcrFg-mwN81ejGvuBXr-41" vertex="1" connectable="0">
          <mxGeometry x="-0.0449" y="-2" relative="1" as="geometry">
            <mxPoint x="-17" as="offset" />
          </mxGeometry>
        </mxCell>
        <mxCell id="3WcrFg-mwN81ejGvuBXr-71" value="rs2" style="edgeLabel;html=1;align=center;verticalAlign=middle;resizable=0;points=[];" parent="3WcrFg-mwN81ejGvuBXr-41" vertex="1" connectable="0">
          <mxGeometry x="0.7862" y="-1" relative="1" as="geometry">
            <mxPoint x="-7" as="offset" />
          </mxGeometry>
        </mxCell>
        <mxCell id="3WcrFg-mwN81ejGvuBXr-43" value="" style="endArrow=classic;html=1;rounded=0;exitX=1.006;exitY=0.165;exitDx=0;exitDy=0;exitPerimeter=0;" parent="1" edge="1">
          <mxGeometry width="50" height="50" relative="1" as="geometry">
            <mxPoint x="480.2399999999998" y="160.00000000000006" as="sourcePoint" />
            <mxPoint x="600" y="160.8" as="targetPoint" />
          </mxGeometry>
        </mxCell>
        <mxCell id="3WcrFg-mwN81ejGvuBXr-44" value="instr_D[14:12]" style="edgeLabel;html=1;align=center;verticalAlign=middle;resizable=0;points=[];" parent="3WcrFg-mwN81ejGvuBXr-43" vertex="1" connectable="0">
          <mxGeometry x="-0.0476" y="-2" relative="1" as="geometry">
            <mxPoint x="-17" y="-2" as="offset" />
          </mxGeometry>
        </mxCell>
        <mxCell id="3WcrFg-mwN81ejGvuBXr-46" value="&lt;div&gt;register&lt;/div&gt;&lt;div&gt;file&lt;/div&gt;" style="rounded=0;whiteSpace=wrap;html=1;" parent="1" vertex="1">
          <mxGeometry x="600" y="280" width="80" height="160" as="geometry" />
        </mxCell>
        <mxCell id="3WcrFg-mwN81ejGvuBXr-48" value="" style="endArrow=classic;html=1;rounded=0;" parent="1" edge="1">
          <mxGeometry width="50" height="50" relative="1" as="geometry">
            <mxPoint x="480" y="330" as="sourcePoint" />
            <mxPoint x="600" y="330" as="targetPoint" />
          </mxGeometry>
        </mxCell>
        <mxCell id="3WcrFg-mwN81ejGvuBXr-49" value="instr_D[19:15]" style="edgeLabel;html=1;align=center;verticalAlign=middle;resizable=0;points=[];" parent="3WcrFg-mwN81ejGvuBXr-48" vertex="1" connectable="0">
          <mxGeometry x="-0.0449" y="-2" relative="1" as="geometry">
            <mxPoint x="-17" y="-1" as="offset" />
          </mxGeometry>
        </mxCell>
        <mxCell id="3WcrFg-mwN81ejGvuBXr-72" value="rs1" style="edgeLabel;html=1;align=center;verticalAlign=middle;resizable=0;points=[];" parent="3WcrFg-mwN81ejGvuBXr-48" vertex="1" connectable="0">
          <mxGeometry x="0.7402" relative="1" as="geometry">
            <mxPoint x="-4" as="offset" />
          </mxGeometry>
        </mxCell>
        <mxCell id="3WcrFg-mwN81ejGvuBXr-54" value="" style="endArrow=classic;html=1;rounded=0;entryX=0;entryY=0.238;entryDx=0;entryDy=0;entryPerimeter=0;" parent="1" target="3WcrFg-mwN81ejGvuBXr-68" edge="1">
          <mxGeometry width="50" height="50" relative="1" as="geometry">
            <mxPoint x="680" y="190" as="sourcePoint" />
            <mxPoint x="780" y="190" as="targetPoint" />
          </mxGeometry>
        </mxCell>
        <mxCell id="3WcrFg-mwN81ejGvuBXr-55" value="alu_src_a_D" style="edgeLabel;html=1;align=center;verticalAlign=middle;resizable=0;points=[];" parent="3WcrFg-mwN81ejGvuBXr-54" vertex="1" connectable="0">
          <mxGeometry x="-0.2747" relative="1" as="geometry">
            <mxPoint x="138" as="offset" />
          </mxGeometry>
        </mxCell>
        <mxCell id="3WcrFg-mwN81ejGvuBXr-58" value="" style="endArrow=classic;html=1;rounded=0;" parent="1" edge="1">
          <mxGeometry width="50" height="50" relative="1" as="geometry">
            <mxPoint x="680" y="200" as="sourcePoint" />
            <mxPoint x="960" y="200" as="targetPoint" />
          </mxGeometry>
        </mxCell>
        <mxCell id="3WcrFg-mwN81ejGvuBXr-59" value="alu_src_b_D" style="edgeLabel;html=1;align=center;verticalAlign=middle;resizable=0;points=[];" parent="3WcrFg-mwN81ejGvuBXr-58" vertex="1" connectable="0">
          <mxGeometry x="-0.2747" relative="1" as="geometry">
            <mxPoint x="68" as="offset" />
          </mxGeometry>
        </mxCell>
        <mxCell id="3WcrFg-mwN81ejGvuBXr-56" value="" style="endArrow=classic;html=1;rounded=0;" parent="1" edge="1">
          <mxGeometry width="50" height="50" relative="1" as="geometry">
            <mxPoint x="680" y="210" as="sourcePoint" />
            <mxPoint x="960" y="210" as="targetPoint" />
          </mxGeometry>
        </mxCell>
        <mxCell id="3WcrFg-mwN81ejGvuBXr-57" value="alu_op_D" style="edgeLabel;html=1;align=center;verticalAlign=middle;resizable=0;points=[];" parent="3WcrFg-mwN81ejGvuBXr-56" vertex="1" connectable="0">
          <mxGeometry x="-0.2747" relative="1" as="geometry">
            <mxPoint x="8" as="offset" />
          </mxGeometry>
        </mxCell>
        <mxCell id="3WcrFg-mwN81ejGvuBXr-60" value="" style="endArrow=classic;html=1;rounded=0;entryX=0;entryY=0.143;entryDx=0;entryDy=0;entryPerimeter=0;" parent="1" edge="1">
          <mxGeometry width="50" height="50" relative="1" as="geometry">
            <mxPoint x="680" y="80" as="sourcePoint" />
            <mxPoint x="960" y="80.08999999999992" as="targetPoint" />
          </mxGeometry>
        </mxCell>
        <mxCell id="3WcrFg-mwN81ejGvuBXr-61" value="reg_write_D" style="edgeLabel;html=1;align=center;verticalAlign=middle;resizable=0;points=[];" parent="3WcrFg-mwN81ejGvuBXr-60" vertex="1" connectable="0">
          <mxGeometry x="-0.2747" relative="1" as="geometry">
            <mxPoint x="128" as="offset" />
          </mxGeometry>
        </mxCell>
        <mxCell id="3WcrFg-mwN81ejGvuBXr-63" value="" style="endArrow=classic;html=1;rounded=0;entryX=0;entryY=0.175;entryDx=0;entryDy=0;entryPerimeter=0;" parent="1" edge="1">
          <mxGeometry width="50" height="50" relative="1" as="geometry">
            <mxPoint x="680" y="100" as="sourcePoint" />
            <mxPoint x="960" y="100.25" as="targetPoint" />
            <Array as="points">
              <mxPoint x="790" y="100" />
            </Array>
          </mxGeometry>
        </mxCell>
        <mxCell id="3WcrFg-mwN81ejGvuBXr-64" value="result_src_D" style="edgeLabel;html=1;align=center;verticalAlign=middle;resizable=0;points=[];" parent="3WcrFg-mwN81ejGvuBXr-63" vertex="1" connectable="0">
          <mxGeometry x="-0.2747" relative="1" as="geometry">
            <mxPoint x="128" as="offset" />
          </mxGeometry>
        </mxCell>
        <mxCell id="3WcrFg-mwN81ejGvuBXr-65" value="imm ext" style="rounded=0;whiteSpace=wrap;html=1;" parent="1" vertex="1">
          <mxGeometry x="700" y="480" width="120" height="60" as="geometry" />
        </mxCell>
        <mxCell id="3WcrFg-mwN81ejGvuBXr-66" value="" style="endArrow=classic;html=1;rounded=0;" parent="1" edge="1">
          <mxGeometry width="50" height="50" relative="1" as="geometry">
            <mxPoint x="480" y="509.78" as="sourcePoint" />
            <mxPoint x="700" y="510" as="targetPoint" />
          </mxGeometry>
        </mxCell>
        <mxCell id="3WcrFg-mwN81ejGvuBXr-67" value="instr_D[31:12]" style="edgeLabel;html=1;align=center;verticalAlign=middle;resizable=0;points=[];" parent="3WcrFg-mwN81ejGvuBXr-66" vertex="1" connectable="0">
          <mxGeometry x="-0.8458" y="-3" relative="1" as="geometry">
            <mxPoint x="23" y="-3" as="offset" />
          </mxGeometry>
        </mxCell>
        <mxCell id="3WcrFg-mwN81ejGvuBXr-68" value="D/E" style="rounded=0;whiteSpace=wrap;html=1;" parent="1" vertex="1">
          <mxGeometry x="960" y="40" width="40" height="630" as="geometry" />
        </mxCell>
        <mxCell id="3WcrFg-mwN81ejGvuBXr-69" value="" style="endArrow=classic;html=1;rounded=0;exitX=1;exitY=0.5;exitDx=0;exitDy=0;" parent="1" source="3WcrFg-mwN81ejGvuBXr-65" edge="1">
          <mxGeometry width="50" height="50" relative="1" as="geometry">
            <mxPoint x="840" y="509.5" as="sourcePoint" />
            <mxPoint x="960" y="509.5" as="targetPoint" />
          </mxGeometry>
        </mxCell>
        <mxCell id="3WcrFg-mwN81ejGvuBXr-70" value="imm_ext_D" style="edgeLabel;html=1;align=center;verticalAlign=middle;resizable=0;points=[];" parent="3WcrFg-mwN81ejGvuBXr-69" vertex="1" connectable="0">
          <mxGeometry x="-0.8458" y="-3" relative="1" as="geometry">
            <mxPoint x="79" y="-3" as="offset" />
          </mxGeometry>
        </mxCell>
        <mxCell id="3WcrFg-mwN81ejGvuBXr-77" style="edgeStyle=orthogonalEdgeStyle;rounded=0;orthogonalLoop=1;jettySize=auto;html=1;exitX=1;exitY=0.25;exitDx=0;exitDy=0;" parent="1" source="3WcrFg-mwN81ejGvuBXr-46" edge="1">
          <mxGeometry relative="1" as="geometry">
            <mxPoint x="960" y="320" as="targetPoint" />
            <Array as="points">
              <mxPoint x="956" y="320" />
            </Array>
          </mxGeometry>
        </mxCell>
        <mxCell id="3WcrFg-mwN81ejGvuBXr-79" value="rs1_data_D" style="edgeLabel;html=1;align=center;verticalAlign=middle;resizable=0;points=[];" parent="3WcrFg-mwN81ejGvuBXr-77" vertex="1" connectable="0">
          <mxGeometry x="0.6951" y="-2" relative="1" as="geometry">
            <mxPoint y="-2" as="offset" />
          </mxGeometry>
        </mxCell>
        <mxCell id="3WcrFg-mwN81ejGvuBXr-78" style="edgeStyle=orthogonalEdgeStyle;rounded=0;orthogonalLoop=1;jettySize=auto;html=1;exitX=1;exitY=0.75;exitDx=0;exitDy=0;" parent="1" edge="1">
          <mxGeometry relative="1" as="geometry">
            <mxPoint x="680" y="400.01" as="sourcePoint" />
            <mxPoint x="960" y="400.01" as="targetPoint" />
          </mxGeometry>
        </mxCell>
        <mxCell id="3WcrFg-mwN81ejGvuBXr-80" value="rs2_data_D" style="edgeLabel;html=1;align=center;verticalAlign=middle;resizable=0;points=[];" parent="3WcrFg-mwN81ejGvuBXr-78" vertex="1" connectable="0">
          <mxGeometry x="0.711" y="-2" relative="1" as="geometry">
            <mxPoint y="-2" as="offset" />
          </mxGeometry>
        </mxCell>
        <mxCell id="3WcrFg-mwN81ejGvuBXr-52" value="" style="endArrow=classic;html=1;rounded=0;entryX=0.5;entryY=0;entryDx=0;entryDy=0;jumpStyle=arc;" parent="1" target="3WcrFg-mwN81ejGvuBXr-65" edge="1">
          <mxGeometry width="50" height="50" relative="1" as="geometry">
            <mxPoint x="680" y="230" as="sourcePoint" />
            <mxPoint x="780" y="230" as="targetPoint" />
            <Array as="points">
              <mxPoint x="760" y="230" />
            </Array>
          </mxGeometry>
        </mxCell>
        <mxCell id="3WcrFg-mwN81ejGvuBXr-53" value="imm_type_D" style="edgeLabel;html=1;align=center;verticalAlign=middle;resizable=0;points=[];" parent="3WcrFg-mwN81ejGvuBXr-52" vertex="1" connectable="0">
          <mxGeometry x="-0.2747" relative="1" as="geometry">
            <mxPoint x="-43" y="-40" as="offset" />
          </mxGeometry>
        </mxCell>
        <mxCell id="3WcrFg-mwN81ejGvuBXr-81" value="" style="endArrow=classic;html=1;rounded=0;exitX=1;exitY=0.667;exitDx=0;exitDy=0;exitPerimeter=0;jumpStyle=arc;" parent="1" edge="1">
          <mxGeometry width="50" height="50" relative="1" as="geometry">
            <mxPoint x="480" y="600" as="sourcePoint" />
            <mxPoint x="960" y="600" as="targetPoint" />
            <Array as="points">
              <mxPoint x="570" y="600" />
            </Array>
          </mxGeometry>
        </mxCell>
        <mxCell id="3WcrFg-mwN81ejGvuBXr-82" value="pc_D" style="edgeLabel;html=1;align=center;verticalAlign=middle;resizable=0;points=[];" parent="3WcrFg-mwN81ejGvuBXr-81" vertex="1" connectable="0">
          <mxGeometry x="0.8968" y="-1" relative="1" as="geometry">
            <mxPoint x="-7" as="offset" />
          </mxGeometry>
        </mxCell>
        <mxCell id="3WcrFg-mwN81ejGvuBXr-84" value="" style="endArrow=classic;html=1;rounded=0;exitX=1;exitY=0.667;exitDx=0;exitDy=0;exitPerimeter=0;jumpStyle=arc;" parent="1" edge="1">
          <mxGeometry width="50" height="50" relative="1" as="geometry">
            <mxPoint x="480" y="620" as="sourcePoint" />
            <mxPoint x="960" y="620" as="targetPoint" />
            <Array as="points">
              <mxPoint x="570" y="620" />
            </Array>
          </mxGeometry>
        </mxCell>
        <mxCell id="3WcrFg-mwN81ejGvuBXr-85" value="pcplus4_D" style="edgeLabel;html=1;align=center;verticalAlign=middle;resizable=0;points=[];" parent="3WcrFg-mwN81ejGvuBXr-84" vertex="1" connectable="0">
          <mxGeometry x="0.8968" y="-1" relative="1" as="geometry">
            <mxPoint x="-15" as="offset" />
          </mxGeometry>
        </mxCell>
        <mxCell id="3WcrFg-mwN81ejGvuBXr-86" value="E/M" style="rounded=0;whiteSpace=wrap;html=1;" parent="1" vertex="1">
          <mxGeometry x="1480" y="40" width="40" height="630" as="geometry" />
        </mxCell>
        <mxCell id="3WcrFg-mwN81ejGvuBXr-103" style="edgeStyle=orthogonalEdgeStyle;rounded=0;orthogonalLoop=1;jettySize=auto;html=1;exitX=1;exitY=0.5;exitDx=0;exitDy=0;" parent="1" source="3WcrFg-mwN81ejGvuBXr-87" edge="1">
          <mxGeometry relative="1" as="geometry">
            <mxPoint x="1480" y="280" as="targetPoint" />
            <mxPoint x="1380" y="280.22" as="sourcePoint" />
          </mxGeometry>
        </mxCell>
        <mxCell id="3WcrFg-mwN81ejGvuBXr-104" value="alu_res_E" style="edgeLabel;html=1;align=center;verticalAlign=middle;resizable=0;points=[];" parent="3WcrFg-mwN81ejGvuBXr-103" vertex="1" connectable="0">
          <mxGeometry x="-0.0558" y="1" relative="1" as="geometry">
            <mxPoint x="13" as="offset" />
          </mxGeometry>
        </mxCell>
        <mxCell id="3WcrFg-mwN81ejGvuBXr-87" value="ALU" style="whiteSpace=wrap;html=1;aspect=fixed;" parent="1" vertex="1">
          <mxGeometry x="1280" y="240" width="80" height="80" as="geometry" />
        </mxCell>
        <mxCell id="3WcrFg-mwN81ejGvuBXr-88" value="&lt;div&gt;0&lt;/div&gt;&lt;div&gt;1&lt;/div&gt;" style="rounded=0;whiteSpace=wrap;html=1;" parent="1" vertex="1">
          <mxGeometry x="1140" y="230" width="20" height="40" as="geometry" />
        </mxCell>
        <mxCell id="3WcrFg-mwN81ejGvuBXr-89" value="&lt;div&gt;0&lt;/div&gt;&lt;div&gt;1&lt;/div&gt;" style="rounded=0;whiteSpace=wrap;html=1;" parent="1" vertex="1">
          <mxGeometry x="1160" y="290" width="20" height="40" as="geometry" />
        </mxCell>
        <mxCell id="3WcrFg-mwN81ejGvuBXr-90" value="" style="endArrow=classic;html=1;rounded=0;entryX=0;entryY=0.75;entryDx=0;entryDy=0;" parent="1" target="3WcrFg-mwN81ejGvuBXr-89" edge="1">
          <mxGeometry width="50" height="50" relative="1" as="geometry">
            <mxPoint x="1000" y="320" as="sourcePoint" />
            <mxPoint x="1120" y="320" as="targetPoint" />
          </mxGeometry>
        </mxCell>
        <mxCell id="3WcrFg-mwN81ejGvuBXr-91" value="imm_ext_E" style="edgeLabel;html=1;align=center;verticalAlign=middle;resizable=0;points=[];" parent="3WcrFg-mwN81ejGvuBXr-90" vertex="1" connectable="0">
          <mxGeometry x="-0.2747" relative="1" as="geometry">
            <mxPoint x="52" as="offset" />
          </mxGeometry>
        </mxCell>
        <mxCell id="3WcrFg-mwN81ejGvuBXr-92" value="" style="endArrow=classic;html=1;rounded=0;entryX=0;entryY=0.25;entryDx=0;entryDy=0;" parent="1" target="3WcrFg-mwN81ejGvuBXr-89" edge="1">
          <mxGeometry width="50" height="50" relative="1" as="geometry">
            <mxPoint x="1000" y="300" as="sourcePoint" />
            <mxPoint x="1120" y="300" as="targetPoint" />
          </mxGeometry>
        </mxCell>
        <mxCell id="3WcrFg-mwN81ejGvuBXr-93" value="write_data_E" style="edgeLabel;html=1;align=center;verticalAlign=middle;resizable=0;points=[];" parent="3WcrFg-mwN81ejGvuBXr-92" vertex="1" connectable="0">
          <mxGeometry x="-0.2747" relative="1" as="geometry">
            <mxPoint x="52" as="offset" />
          </mxGeometry>
        </mxCell>
        <mxCell id="3WcrFg-mwN81ejGvuBXr-94" value="rs2_data_E" style="edgeLabel;html=1;align=center;verticalAlign=middle;resizable=0;points=[];" parent="3WcrFg-mwN81ejGvuBXr-92" vertex="1" connectable="0">
          <mxGeometry x="-0.6449" y="-2" relative="1" as="geometry">
            <mxPoint x="2" y="-2" as="offset" />
          </mxGeometry>
        </mxCell>
        <mxCell id="3WcrFg-mwN81ejGvuBXr-95" value="" style="endArrow=classic;html=1;rounded=0;" parent="1" edge="1">
          <mxGeometry width="50" height="50" relative="1" as="geometry">
            <mxPoint x="1000" y="239.38" as="sourcePoint" />
            <mxPoint x="1140" y="239" as="targetPoint" />
          </mxGeometry>
        </mxCell>
        <mxCell id="3WcrFg-mwN81ejGvuBXr-96" value="rs1_data_E" style="edgeLabel;html=1;align=center;verticalAlign=middle;resizable=0;points=[];" parent="3WcrFg-mwN81ejGvuBXr-95" vertex="1" connectable="0">
          <mxGeometry x="-0.2747" relative="1" as="geometry">
            <mxPoint x="-21" y="1" as="offset" />
          </mxGeometry>
        </mxCell>
        <mxCell id="3WcrFg-mwN81ejGvuBXr-97" value="" style="endArrow=classic;html=1;rounded=0;" parent="1" edge="1">
          <mxGeometry width="50" height="50" relative="1" as="geometry">
            <mxPoint x="1000" y="259.69" as="sourcePoint" />
            <mxPoint x="1140" y="260" as="targetPoint" />
          </mxGeometry>
        </mxCell>
        <mxCell id="3WcrFg-mwN81ejGvuBXr-98" value="pc_E" style="edgeLabel;html=1;align=center;verticalAlign=middle;resizable=0;points=[];" parent="3WcrFg-mwN81ejGvuBXr-97" vertex="1" connectable="0">
          <mxGeometry x="-0.2747" relative="1" as="geometry">
            <mxPoint x="-31" as="offset" />
          </mxGeometry>
        </mxCell>
        <mxCell id="3WcrFg-mwN81ejGvuBXr-99" value="" style="endArrow=classic;html=1;rounded=0;" parent="1" edge="1">
          <mxGeometry width="50" height="50" relative="1" as="geometry">
            <mxPoint x="1160" y="249.9" as="sourcePoint" />
            <mxPoint x="1280" y="250" as="targetPoint" />
          </mxGeometry>
        </mxCell>
        <mxCell id="3WcrFg-mwN81ejGvuBXr-100" value="alu_port_a_E" style="edgeLabel;html=1;align=center;verticalAlign=middle;resizable=0;points=[];" parent="3WcrFg-mwN81ejGvuBXr-99" vertex="1" connectable="0">
          <mxGeometry x="-0.2747" relative="1" as="geometry">
            <mxPoint x="26" as="offset" />
          </mxGeometry>
        </mxCell>
        <mxCell id="3WcrFg-mwN81ejGvuBXr-101" value="" style="endArrow=classic;html=1;rounded=0;" parent="1" edge="1">
          <mxGeometry width="50" height="50" relative="1" as="geometry">
            <mxPoint x="1180" y="309.69" as="sourcePoint" />
            <mxPoint x="1280" y="310" as="targetPoint" />
          </mxGeometry>
        </mxCell>
        <mxCell id="3WcrFg-mwN81ejGvuBXr-102" value="alu_port_b_E" style="edgeLabel;html=1;align=center;verticalAlign=middle;resizable=0;points=[];" parent="3WcrFg-mwN81ejGvuBXr-101" vertex="1" connectable="0">
          <mxGeometry x="-0.2747" relative="1" as="geometry">
            <mxPoint x="13" as="offset" />
          </mxGeometry>
        </mxCell>
        <mxCell id="3WcrFg-mwN81ejGvuBXr-106" value="" style="endArrow=classic;html=1;rounded=0;jumpStyle=arc;" parent="1" edge="1">
          <mxGeometry width="50" height="50" relative="1" as="geometry">
            <mxPoint x="1000" y="200" as="sourcePoint" />
            <mxPoint x="1170" y="290" as="targetPoint" />
            <Array as="points">
              <mxPoint x="1170" y="200" />
            </Array>
          </mxGeometry>
        </mxCell>
        <mxCell id="3WcrFg-mwN81ejGvuBXr-108" value="alu_src_b_E" style="edgeLabel;html=1;align=center;verticalAlign=middle;resizable=0;points=[];" parent="3WcrFg-mwN81ejGvuBXr-106" vertex="1" connectable="0">
          <mxGeometry x="-0.7567" y="-1" relative="1" as="geometry">
            <mxPoint x="8" as="offset" />
          </mxGeometry>
        </mxCell>
        <mxCell id="3WcrFg-mwN81ejGvuBXr-105" value="" style="endArrow=classic;html=1;rounded=0;jumpStyle=arc;" parent="1" edge="1">
          <mxGeometry width="50" height="50" relative="1" as="geometry">
            <mxPoint x="1000" y="190" as="sourcePoint" />
            <mxPoint x="1150" y="230" as="targetPoint" />
            <Array as="points">
              <mxPoint x="1150" y="190" />
            </Array>
          </mxGeometry>
        </mxCell>
        <mxCell id="3WcrFg-mwN81ejGvuBXr-107" value="alu_src_a_E" style="edgeLabel;html=1;align=center;verticalAlign=middle;resizable=0;points=[];" parent="3WcrFg-mwN81ejGvuBXr-105" vertex="1" connectable="0">
          <mxGeometry x="-0.8061" y="-1" relative="1" as="geometry">
            <mxPoint x="22" y="-1" as="offset" />
          </mxGeometry>
        </mxCell>
        <mxCell id="3yqcSGQ34DYOrZW2OWWX-1" value="" style="endArrow=classic;html=1;rounded=0;exitX=1;exitY=0.667;exitDx=0;exitDy=0;exitPerimeter=0;jumpStyle=arc;" edge="1" parent="1">
          <mxGeometry width="50" height="50" relative="1" as="geometry">
            <mxPoint x="1000" y="620" as="sourcePoint" />
            <mxPoint x="1480" y="620" as="targetPoint" />
            <Array as="points">
              <mxPoint x="1090" y="620" />
            </Array>
          </mxGeometry>
        </mxCell>
        <mxCell id="3yqcSGQ34DYOrZW2OWWX-2" value="pcplus4_E" style="edgeLabel;html=1;align=center;verticalAlign=middle;resizable=0;points=[];" vertex="1" connectable="0" parent="3yqcSGQ34DYOrZW2OWWX-1">
          <mxGeometry x="0.8968" y="-1" relative="1" as="geometry">
            <mxPoint x="-15" as="offset" />
          </mxGeometry>
        </mxCell>
        <mxCell id="3yqcSGQ34DYOrZW2OWWX-3" value="" style="endArrow=classic;html=1;rounded=0;exitX=1;exitY=0.667;exitDx=0;exitDy=0;exitPerimeter=0;jumpStyle=arc;" edge="1" parent="1">
          <mxGeometry width="50" height="50" relative="1" as="geometry">
            <mxPoint x="1000" y="460" as="sourcePoint" />
            <mxPoint x="1480" y="460" as="targetPoint" />
            <Array as="points">
              <mxPoint x="1090" y="460" />
            </Array>
          </mxGeometry>
        </mxCell>
        <mxCell id="3yqcSGQ34DYOrZW2OWWX-4" value="rd_E" style="edgeLabel;html=1;align=center;verticalAlign=middle;resizable=0;points=[];" vertex="1" connectable="0" parent="3yqcSGQ34DYOrZW2OWWX-3">
          <mxGeometry x="0.8968" y="-1" relative="1" as="geometry">
            <mxPoint x="-15" as="offset" />
          </mxGeometry>
        </mxCell>
        <mxCell id="3yqcSGQ34DYOrZW2OWWX-5" value="" style="endArrow=classic;html=1;rounded=0;jumpStyle=arc;" edge="1" parent="1">
          <mxGeometry width="50" height="50" relative="1" as="geometry">
            <mxPoint x="1070" y="300" as="sourcePoint" />
            <mxPoint x="1480" y="360" as="targetPoint" />
            <Array as="points">
              <mxPoint x="1070" y="360" />
            </Array>
          </mxGeometry>
        </mxCell>
        <mxCell id="3yqcSGQ34DYOrZW2OWWX-6" value="write_data_E" style="edgeLabel;html=1;align=center;verticalAlign=middle;resizable=0;points=[];" vertex="1" connectable="0" parent="3yqcSGQ34DYOrZW2OWWX-5">
          <mxGeometry x="0.7686" relative="1" as="geometry">
            <mxPoint x="9" as="offset" />
          </mxGeometry>
        </mxCell>
        <mxCell id="3yqcSGQ34DYOrZW2OWWX-7" value="" style="endArrow=classic;html=1;rounded=0;" edge="1" parent="1">
          <mxGeometry width="50" height="50" relative="1" as="geometry">
            <mxPoint x="1000" y="79.99999999999997" as="sourcePoint" />
            <mxPoint x="1480" y="80" as="targetPoint" />
          </mxGeometry>
        </mxCell>
        <mxCell id="3yqcSGQ34DYOrZW2OWWX-8" value="reg_write_E" style="edgeLabel;html=1;align=center;verticalAlign=middle;resizable=0;points=[];" vertex="1" connectable="0" parent="3yqcSGQ34DYOrZW2OWWX-7">
          <mxGeometry x="-0.2747" relative="1" as="geometry">
            <mxPoint x="256" as="offset" />
          </mxGeometry>
        </mxCell>
        <mxCell id="3yqcSGQ34DYOrZW2OWWX-9" value="" style="endArrow=classic;html=1;rounded=0;" edge="1" parent="1">
          <mxGeometry width="50" height="50" relative="1" as="geometry">
            <mxPoint x="1000" y="100" as="sourcePoint" />
            <mxPoint x="1480" y="100.00000000000003" as="targetPoint" />
          </mxGeometry>
        </mxCell>
        <mxCell id="3yqcSGQ34DYOrZW2OWWX-10" value="result_src_E" style="edgeLabel;html=1;align=center;verticalAlign=middle;resizable=0;points=[];" vertex="1" connectable="0" parent="3yqcSGQ34DYOrZW2OWWX-9">
          <mxGeometry x="-0.2747" relative="1" as="geometry">
            <mxPoint x="256" as="offset" />
          </mxGeometry>
        </mxCell>
        <mxCell id="3yqcSGQ34DYOrZW2OWWX-11" value="E/M" style="rounded=0;whiteSpace=wrap;html=1;" vertex="1" parent="1">
          <mxGeometry x="1880" y="40" width="40" height="630" as="geometry" />
        </mxCell>
        <mxCell id="3yqcSGQ34DYOrZW2OWWX-35" style="edgeStyle=orthogonalEdgeStyle;rounded=0;orthogonalLoop=1;jettySize=auto;html=1;exitX=1;exitY=0.75;exitDx=0;exitDy=0;" edge="1" parent="1">
          <mxGeometry relative="1" as="geometry">
            <mxPoint x="1880" y="359.98" as="targetPoint" />
            <mxPoint x="1760" y="359.52" as="sourcePoint" />
          </mxGeometry>
        </mxCell>
        <mxCell id="3yqcSGQ34DYOrZW2OWWX-36" value="read_data_M" style="edgeLabel;html=1;align=center;verticalAlign=middle;resizable=0;points=[];" vertex="1" connectable="0" parent="3yqcSGQ34DYOrZW2OWWX-35">
          <mxGeometry x="-0.0833" y="1" relative="1" as="geometry">
            <mxPoint x="15" y="1" as="offset" />
          </mxGeometry>
        </mxCell>
        <mxCell id="3yqcSGQ34DYOrZW2OWWX-12" value="dmem" style="swimlane;fontStyle=0;childLayout=stackLayout;horizontal=1;startSize=130;horizontalStack=0;resizeParent=1;resizeParentMax=0;resizeLast=0;collapsible=1;marginBottom=0;whiteSpace=wrap;html=1;" vertex="1" collapsed="1" parent="1">
          <mxGeometry x="1680" y="240" width="80" height="160" as="geometry">
            <mxRectangle x="1640" y="300" width="80" height="340" as="alternateBounds" />
          </mxGeometry>
        </mxCell>
        <mxCell id="3yqcSGQ34DYOrZW2OWWX-13" value="0x0" style="text;strokeColor=none;fillColor=none;align=left;verticalAlign=middle;spacingLeft=4;spacingRight=4;overflow=hidden;points=[[0,0.5],[1,0.5]];portConstraint=eastwest;rotatable=0;whiteSpace=wrap;html=1;" vertex="1" parent="3yqcSGQ34DYOrZW2OWWX-12">
          <mxGeometry y="130" width="80" height="30" as="geometry" />
        </mxCell>
        <mxCell id="3yqcSGQ34DYOrZW2OWWX-14" value="0x4" style="text;strokeColor=none;fillColor=none;align=left;verticalAlign=middle;spacingLeft=4;spacingRight=4;overflow=hidden;points=[[0,0.5],[1,0.5]];portConstraint=eastwest;rotatable=0;whiteSpace=wrap;html=1;" vertex="1" parent="3yqcSGQ34DYOrZW2OWWX-12">
          <mxGeometry y="160" width="80" height="30" as="geometry" />
        </mxCell>
        <mxCell id="3yqcSGQ34DYOrZW2OWWX-15" value="0x8" style="text;strokeColor=none;fillColor=none;align=left;verticalAlign=middle;spacingLeft=4;spacingRight=4;overflow=hidden;points=[[0,0.5],[1,0.5]];portConstraint=eastwest;rotatable=0;whiteSpace=wrap;html=1;" vertex="1" parent="3yqcSGQ34DYOrZW2OWWX-12">
          <mxGeometry y="190" width="80" height="30" as="geometry" />
        </mxCell>
        <mxCell id="3yqcSGQ34DYOrZW2OWWX-16" value="0xC" style="text;strokeColor=none;fillColor=none;align=left;verticalAlign=middle;spacingLeft=4;spacingRight=4;overflow=hidden;points=[[0,0.5],[1,0.5]];portConstraint=eastwest;rotatable=0;whiteSpace=wrap;html=1;" vertex="1" parent="3yqcSGQ34DYOrZW2OWWX-12">
          <mxGeometry y="220" width="80" height="30" as="geometry" />
        </mxCell>
        <mxCell id="3yqcSGQ34DYOrZW2OWWX-17" value="0x10" style="text;strokeColor=none;fillColor=none;align=left;verticalAlign=middle;spacingLeft=4;spacingRight=4;overflow=hidden;points=[[0,0.5],[1,0.5]];portConstraint=eastwest;rotatable=0;whiteSpace=wrap;html=1;" vertex="1" parent="3yqcSGQ34DYOrZW2OWWX-12">
          <mxGeometry y="250" width="80" height="30" as="geometry" />
        </mxCell>
        <mxCell id="3yqcSGQ34DYOrZW2OWWX-18" value="0x14" style="text;strokeColor=none;fillColor=none;align=left;verticalAlign=middle;spacingLeft=4;spacingRight=4;overflow=hidden;points=[[0,0.5],[1,0.5]];portConstraint=eastwest;rotatable=0;whiteSpace=wrap;html=1;" vertex="1" parent="3yqcSGQ34DYOrZW2OWWX-12">
          <mxGeometry y="280" width="80" height="30" as="geometry" />
        </mxCell>
        <mxCell id="3yqcSGQ34DYOrZW2OWWX-19" value="0x18" style="text;strokeColor=none;fillColor=none;align=left;verticalAlign=middle;spacingLeft=4;spacingRight=4;overflow=hidden;points=[[0,0.5],[1,0.5]];portConstraint=eastwest;rotatable=0;whiteSpace=wrap;html=1;" vertex="1" parent="3yqcSGQ34DYOrZW2OWWX-12">
          <mxGeometry y="310" width="80" height="30" as="geometry" />
        </mxCell>
        <mxCell id="3yqcSGQ34DYOrZW2OWWX-20" value="" style="endArrow=classic;html=1;rounded=0;" edge="1" parent="1">
          <mxGeometry width="50" height="50" relative="1" as="geometry">
            <mxPoint x="1520" y="279.17" as="sourcePoint" />
            <mxPoint x="1680" y="280" as="targetPoint" />
          </mxGeometry>
        </mxCell>
        <mxCell id="3yqcSGQ34DYOrZW2OWWX-21" value="alu_res_M" style="edgeLabel;html=1;align=center;verticalAlign=middle;resizable=0;points=[];" vertex="1" connectable="0" parent="3yqcSGQ34DYOrZW2OWWX-20">
          <mxGeometry x="-0.2747" relative="1" as="geometry">
            <mxPoint x="-28" y="1" as="offset" />
          </mxGeometry>
        </mxCell>
        <mxCell id="3yqcSGQ34DYOrZW2OWWX-27" value="daddr" style="edgeLabel;html=1;align=center;verticalAlign=middle;resizable=0;points=[];" vertex="1" connectable="0" parent="3yqcSGQ34DYOrZW2OWWX-20">
          <mxGeometry x="0.6875" y="1" relative="1" as="geometry">
            <mxPoint x="-5" as="offset" />
          </mxGeometry>
        </mxCell>
        <mxCell id="3yqcSGQ34DYOrZW2OWWX-22" value="" style="endArrow=classic;html=1;rounded=0;" edge="1" parent="1">
          <mxGeometry width="50" height="50" relative="1" as="geometry">
            <mxPoint x="1520" y="360" as="sourcePoint" />
            <mxPoint x="1680" y="360.83" as="targetPoint" />
          </mxGeometry>
        </mxCell>
        <mxCell id="3yqcSGQ34DYOrZW2OWWX-23" value="write_data_M" style="edgeLabel;html=1;align=center;verticalAlign=middle;resizable=0;points=[];" vertex="1" connectable="0" parent="3yqcSGQ34DYOrZW2OWWX-22">
          <mxGeometry x="-0.2747" relative="1" as="geometry">
            <mxPoint x="-18" as="offset" />
          </mxGeometry>
        </mxCell>
        <mxCell id="3yqcSGQ34DYOrZW2OWWX-28" value="write_data" style="edgeLabel;html=1;align=center;verticalAlign=middle;resizable=0;points=[];" vertex="1" connectable="0" parent="3yqcSGQ34DYOrZW2OWWX-22">
          <mxGeometry x="0.6979" relative="1" as="geometry">
            <mxPoint x="-16" as="offset" />
          </mxGeometry>
        </mxCell>
        <mxCell id="3yqcSGQ34DYOrZW2OWWX-24" value="" style="endArrow=classic;html=1;rounded=0;" edge="1" parent="1">
          <mxGeometry width="50" height="50" relative="1" as="geometry">
            <mxPoint x="1700" y="180" as="sourcePoint" />
            <mxPoint x="1700" y="240" as="targetPoint" />
          </mxGeometry>
        </mxCell>
        <mxCell id="3yqcSGQ34DYOrZW2OWWX-25" value="byte_en" style="edgeLabel;html=1;align=center;verticalAlign=middle;resizable=0;points=[];" vertex="1" connectable="0" parent="3yqcSGQ34DYOrZW2OWWX-24">
          <mxGeometry x="-0.3933" relative="1" as="geometry">
            <mxPoint y="22" as="offset" />
          </mxGeometry>
        </mxCell>
        <mxCell id="3yqcSGQ34DYOrZW2OWWX-29" value="" style="endArrow=classic;html=1;rounded=0;" edge="1" parent="1">
          <mxGeometry width="50" height="50" relative="1" as="geometry">
            <mxPoint x="1520" y="80" as="sourcePoint" />
            <mxPoint x="1880" y="80" as="targetPoint" />
          </mxGeometry>
        </mxCell>
        <mxCell id="3yqcSGQ34DYOrZW2OWWX-30" value="reg_write_M" style="edgeLabel;html=1;align=center;verticalAlign=middle;resizable=0;points=[];" vertex="1" connectable="0" parent="3yqcSGQ34DYOrZW2OWWX-29">
          <mxGeometry x="-0.2747" relative="1" as="geometry">
            <mxPoint x="154" as="offset" />
          </mxGeometry>
        </mxCell>
        <mxCell id="3yqcSGQ34DYOrZW2OWWX-31" value="" style="endArrow=classic;html=1;rounded=0;" edge="1" parent="1">
          <mxGeometry width="50" height="50" relative="1" as="geometry">
            <mxPoint x="1520" y="100" as="sourcePoint" />
            <mxPoint x="1880" y="100" as="targetPoint" />
          </mxGeometry>
        </mxCell>
        <mxCell id="3yqcSGQ34DYOrZW2OWWX-32" value="result_src_M" style="edgeLabel;html=1;align=center;verticalAlign=middle;resizable=0;points=[];" vertex="1" connectable="0" parent="3yqcSGQ34DYOrZW2OWWX-31">
          <mxGeometry x="-0.2747" relative="1" as="geometry">
            <mxPoint x="154" as="offset" />
          </mxGeometry>
        </mxCell>
        <mxCell id="3yqcSGQ34DYOrZW2OWWX-33" value="" style="endArrow=classic;html=1;rounded=0;exitX=1;exitY=0.667;exitDx=0;exitDy=0;exitPerimeter=0;jumpStyle=arc;" edge="1" parent="1">
          <mxGeometry width="50" height="50" relative="1" as="geometry">
            <mxPoint x="1520" y="620" as="sourcePoint" />
            <mxPoint x="1880" y="620" as="targetPoint" />
            <Array as="points">
              <mxPoint x="1610" y="620" />
            </Array>
          </mxGeometry>
        </mxCell>
        <mxCell id="3yqcSGQ34DYOrZW2OWWX-34" value="pcplus4_M" style="edgeLabel;html=1;align=center;verticalAlign=middle;resizable=0;points=[];" vertex="1" connectable="0" parent="3yqcSGQ34DYOrZW2OWWX-33">
          <mxGeometry x="0.8968" y="-1" relative="1" as="geometry">
            <mxPoint x="-23" y="-1" as="offset" />
          </mxGeometry>
        </mxCell>
        <mxCell id="3yqcSGQ34DYOrZW2OWWX-37" value="" style="endArrow=classic;html=1;rounded=0;jumpStyle=arc;" edge="1" parent="1">
          <mxGeometry width="50" height="50" relative="1" as="geometry">
            <mxPoint x="1610" y="280" as="sourcePoint" />
            <mxPoint x="1880" y="200" as="targetPoint" />
            <Array as="points">
              <mxPoint x="1610" y="200" />
            </Array>
          </mxGeometry>
        </mxCell>
        <mxCell id="3yqcSGQ34DYOrZW2OWWX-38" value="alu_res_M" style="edgeLabel;html=1;align=center;verticalAlign=middle;resizable=0;points=[];" vertex="1" connectable="0" parent="3yqcSGQ34DYOrZW2OWWX-37">
          <mxGeometry x="0.7686" relative="1" as="geometry">
            <mxPoint x="1" as="offset" />
          </mxGeometry>
        </mxCell>
        <mxCell id="3yqcSGQ34DYOrZW2OWWX-39" value="&lt;font style=&quot;font-size: 10px;&quot;&gt;0xF&lt;/font&gt;" style="ellipse;whiteSpace=wrap;html=1;aspect=fixed;" vertex="1" parent="1">
          <mxGeometry x="1690" y="160" width="20" height="20" as="geometry" />
        </mxCell>
        <mxCell id="3yqcSGQ34DYOrZW2OWWX-40" value="" style="endArrow=classic;html=1;rounded=0;exitX=1;exitY=0.667;exitDx=0;exitDy=0;exitPerimeter=0;jumpStyle=arc;" edge="1" parent="1">
          <mxGeometry width="50" height="50" relative="1" as="geometry">
            <mxPoint x="1520" y="460" as="sourcePoint" />
            <mxPoint x="1880" y="460" as="targetPoint" />
            <Array as="points">
              <mxPoint x="1610" y="460" />
            </Array>
          </mxGeometry>
        </mxCell>
        <mxCell id="3yqcSGQ34DYOrZW2OWWX-41" value="rd_M" style="edgeLabel;html=1;align=center;verticalAlign=middle;resizable=0;points=[];" vertex="1" connectable="0" parent="3yqcSGQ34DYOrZW2OWWX-40">
          <mxGeometry x="0.8968" y="-1" relative="1" as="geometry">
            <mxPoint x="-23" y="-1" as="offset" />
          </mxGeometry>
        </mxCell>
        <mxCell id="3yqcSGQ34DYOrZW2OWWX-54" style="edgeStyle=orthogonalEdgeStyle;rounded=0;orthogonalLoop=1;jettySize=auto;html=1;exitX=1;exitY=0.5;exitDx=0;exitDy=0;entryX=0;entryY=0.75;entryDx=0;entryDy=0;jumpStyle=arc;" edge="1" parent="1" source="3yqcSGQ34DYOrZW2OWWX-43" target="3WcrFg-mwN81ejGvuBXr-46">
          <mxGeometry relative="1" as="geometry">
            <mxPoint x="570" y="360" as="targetPoint" />
            <Array as="points">
              <mxPoint x="2120" y="360" />
              <mxPoint x="2120" y="730" />
              <mxPoint x="570" y="730" />
              <mxPoint x="570" y="400" />
            </Array>
          </mxGeometry>
        </mxCell>
        <mxCell id="3yqcSGQ34DYOrZW2OWWX-55" value="result_W" style="edgeLabel;html=1;align=center;verticalAlign=middle;resizable=0;points=[];" vertex="1" connectable="0" parent="3yqcSGQ34DYOrZW2OWWX-54">
          <mxGeometry x="-0.8236" y="-1" relative="1" as="geometry">
            <mxPoint x="-39" y="-138" as="offset" />
          </mxGeometry>
        </mxCell>
        <mxCell id="3yqcSGQ34DYOrZW2OWWX-59" value="rd_data" style="edgeLabel;html=1;align=center;verticalAlign=middle;resizable=0;points=[];" vertex="1" connectable="0" parent="3yqcSGQ34DYOrZW2OWWX-54">
          <mxGeometry x="0.9816" y="1" relative="1" as="geometry">
            <mxPoint x="-18" as="offset" />
          </mxGeometry>
        </mxCell>
        <mxCell id="3yqcSGQ34DYOrZW2OWWX-43" value="&lt;div&gt;0&lt;/div&gt;&lt;div&gt;&lt;br&gt;&lt;/div&gt;&lt;div&gt;1&lt;/div&gt;&lt;div&gt;&lt;br&gt;&lt;/div&gt;&lt;div&gt;2&lt;/div&gt;" style="rounded=0;whiteSpace=wrap;html=1;" vertex="1" parent="1">
          <mxGeometry x="2030" y="320" width="20" height="80" as="geometry" />
        </mxCell>
        <mxCell id="3yqcSGQ34DYOrZW2OWWX-46" value="" style="endArrow=classic;html=1;rounded=0;" edge="1" parent="1">
          <mxGeometry width="50" height="50" relative="1" as="geometry">
            <mxPoint x="1920" y="100" as="sourcePoint" />
            <mxPoint x="2040" y="320" as="targetPoint" />
            <Array as="points">
              <mxPoint x="2040" y="100" />
            </Array>
          </mxGeometry>
        </mxCell>
        <mxCell id="3yqcSGQ34DYOrZW2OWWX-47" value="result_src_W" style="edgeLabel;html=1;align=center;verticalAlign=middle;resizable=0;points=[];" vertex="1" connectable="0" parent="3yqcSGQ34DYOrZW2OWWX-46">
          <mxGeometry x="0.8533" relative="1" as="geometry">
            <mxPoint y="-8" as="offset" />
          </mxGeometry>
        </mxCell>
        <mxCell id="3yqcSGQ34DYOrZW2OWWX-48" value="" style="endArrow=classic;html=1;rounded=0;" edge="1" parent="1">
          <mxGeometry width="50" height="50" relative="1" as="geometry">
            <mxPoint x="1920" y="200" as="sourcePoint" />
            <mxPoint x="2030" y="330" as="targetPoint" />
            <Array as="points">
              <mxPoint x="1960" y="200" />
              <mxPoint x="1960" y="330" />
            </Array>
          </mxGeometry>
        </mxCell>
        <mxCell id="3yqcSGQ34DYOrZW2OWWX-49" value="alu_res_W" style="edgeLabel;html=1;align=center;verticalAlign=middle;resizable=0;points=[];" vertex="1" connectable="0" parent="3yqcSGQ34DYOrZW2OWWX-48">
          <mxGeometry x="0.6186" relative="1" as="geometry">
            <mxPoint x="6" as="offset" />
          </mxGeometry>
        </mxCell>
        <mxCell id="3yqcSGQ34DYOrZW2OWWX-50" value="" style="endArrow=classic;html=1;rounded=0;" edge="1" parent="1">
          <mxGeometry width="50" height="50" relative="1" as="geometry">
            <mxPoint x="1920" y="360" as="sourcePoint" />
            <mxPoint x="2030" y="360" as="targetPoint" />
          </mxGeometry>
        </mxCell>
        <mxCell id="3yqcSGQ34DYOrZW2OWWX-51" value="read_data_W" style="edgeLabel;html=1;align=center;verticalAlign=middle;resizable=0;points=[];" vertex="1" connectable="0" parent="3yqcSGQ34DYOrZW2OWWX-50">
          <mxGeometry x="0.4104" relative="1" as="geometry">
            <mxPoint x="-18" as="offset" />
          </mxGeometry>
        </mxCell>
        <mxCell id="3yqcSGQ34DYOrZW2OWWX-56" value="" style="endArrow=classic;html=1;rounded=0;exitX=0.5;exitY=1;exitDx=0;exitDy=0;jumpStyle=arc;" edge="1" parent="1" source="3yqcSGQ34DYOrZW2OWWX-11">
          <mxGeometry width="50" height="50" relative="1" as="geometry">
            <mxPoint x="1900" y="680" as="sourcePoint" />
            <mxPoint x="600" y="420" as="targetPoint" />
            <Array as="points">
              <mxPoint x="1900" y="720" />
              <mxPoint x="580" y="720" />
              <mxPoint x="580" y="420" />
            </Array>
          </mxGeometry>
        </mxCell>
        <mxCell id="3yqcSGQ34DYOrZW2OWWX-57" value="rd_W" style="edgeLabel;html=1;align=center;verticalAlign=middle;resizable=0;points=[];" vertex="1" connectable="0" parent="3yqcSGQ34DYOrZW2OWWX-56">
          <mxGeometry x="-0.9822" relative="1" as="geometry">
            <mxPoint y="5" as="offset" />
          </mxGeometry>
        </mxCell>
        <mxCell id="3yqcSGQ34DYOrZW2OWWX-58" value="rd" style="edgeLabel;html=1;align=center;verticalAlign=middle;resizable=0;points=[];" vertex="1" connectable="0" parent="3yqcSGQ34DYOrZW2OWWX-56">
          <mxGeometry x="0.9675" y="1" relative="1" as="geometry">
            <mxPoint y="-8" as="offset" />
          </mxGeometry>
        </mxCell>
        <mxCell id="3yqcSGQ34DYOrZW2OWWX-52" value="" style="endArrow=classic;html=1;rounded=0;jumpStyle=arc;" edge="1" parent="1">
          <mxGeometry width="50" height="50" relative="1" as="geometry">
            <mxPoint x="1920" y="620" as="sourcePoint" />
            <mxPoint x="2030" y="390" as="targetPoint" />
            <Array as="points">
              <mxPoint x="1960" y="620" />
              <mxPoint x="1960" y="390" />
            </Array>
          </mxGeometry>
        </mxCell>
        <mxCell id="3yqcSGQ34DYOrZW2OWWX-53" value="pcplus4_W" style="edgeLabel;html=1;align=center;verticalAlign=middle;resizable=0;points=[];" vertex="1" connectable="0" parent="3yqcSGQ34DYOrZW2OWWX-52">
          <mxGeometry x="0.7622" y="1" relative="1" as="geometry">
            <mxPoint y="1" as="offset" />
          </mxGeometry>
        </mxCell>
        <mxCell id="3yqcSGQ34DYOrZW2OWWX-61" value="" style="endArrow=classic;html=1;rounded=0;entryX=0;entryY=0.625;entryDx=0;entryDy=0;entryPerimeter=0;" edge="1" parent="1" target="3WcrFg-mwN81ejGvuBXr-46">
          <mxGeometry width="50" height="50" relative="1" as="geometry">
            <mxPoint x="1900" y="40" as="sourcePoint" />
            <mxPoint x="560" y="390" as="targetPoint" />
            <Array as="points">
              <mxPoint x="1900" />
              <mxPoint x="560" />
              <mxPoint x="560" y="380" />
            </Array>
          </mxGeometry>
        </mxCell>
        <mxCell id="3yqcSGQ34DYOrZW2OWWX-62" value="rd_enable" style="edgeLabel;html=1;align=center;verticalAlign=middle;resizable=0;points=[];" vertex="1" connectable="0" parent="3yqcSGQ34DYOrZW2OWWX-61">
          <mxGeometry x="0.9646" relative="1" as="geometry">
            <mxPoint x="-18" as="offset" />
          </mxGeometry>
        </mxCell>
      </root>
    </mxGraphModel>
  </diagram>
</mxfile>
